PathFileType	4	(X/Y/Z)	C:\Users\Tech_3\Documents\Nikita\PSYC9080\walk1.trc
DataRate	CameraRate	NumFrames	NumMarkers	Units	OrigDataRate	OrigDataStartFrame	OrigNumFrames
120.00	120.00	      12	16	mm	120.00	2206	      2520
Frame#	Time	R_1M			R_5M			R_CALC			R_MAL			R_KNEE			R_GT			R_ASIS			R_PSIS			L_1M			L_5M			L_CALC			L_MAL			L_KNEE			L_GT			L_ASIS			L_PSIS			
		X1	Y1	Z1	X2	Y2	Z2	X3	Y3	Z3	X4	Y4	Z4	X5	Y5	Z5	X6	Y6	Z6	X7	Y7	Z7	X8	Y8	Z8	X9	Y9	Z9	X10	Y10	Z10	X11	Y11	Z11	X12	Y12	Z12	X13	Y13	Z13	X14	Y14	Z14	X15	Y15	Z15	X16	Y16	Z16	

2206	18.375	267.39966	50.25552	258.22382	161.89778	48.41241	230.81828	229.56761	63.58662	54.87725	175.90671	131.66417	156.20775	155.99034	467.20917	320.45178	87.13669	838.04962	408.28232	172.62921	883.78931	508.60992	237.12640	968.23120	285.04660	332.62106	139.30641	834.07660	426.72052	131.11479	818.31030	353.81873	24.68788	664.65527	408.20596	128.95758	692.46820	407.79752	509.17731	574.99811	466.26572	809.82886	461.58859	368.69653	898.41602	520.52246	312.21225	957.23932	283.52499	
2207	18.383	266.71994	49.90677	249.24783	161.82727	48.58322	221.73029	229.86307	66.97212	46.55825	176.27505	133.39047	148.76164	156.03346	466.62201	318.58041	86.70509	837.18140	407.52982	173.05209	882.72974	508.69324	238.04710	967.46393	285.44794	330.80942	136.44449	830.99670	424.94690	128.38873	816.36884	354.22015	22.72411	661.46857	408.87247	126.52702	690.59100	407.77957	508.08325	575.40717	466.75226	809.11029	462.66263	368.92319	897.53052	521.05231	313.13071	956.38440	284.18753	
2208	18.392	266.86066	49.70204	239.80795	161.88722	48.66105	212.95503	228.97778	71.10745	37.96001	175.78963	135.44881	141.55714	156.51785	465.95370	317.04263	87.74362	836.10797	407.59747	173.70708	881.52686	509.18204	239.13153	966.68817	286.29306	329.12772	132.41664	826.21283	423.94098	124.28021	812.76117	354.87964	20.98709	655.52258	408.43390	124.16413	686.85748	407.77472	507.14868	575.96051	467.11215	808.10266	464.90286	369.31744	896.76508	521.97284	314.07767	955.70386	284.91776	
2209	18.400	266.71432	49.56287	231.11356	161.75989	48.88265	204.00941	228.68721	75.55236	29.75260	175.65263	137.74831	134.39339	156.97899	465.28540	315.81812	88.58212	835.32233	407.75427	174.20781	880.73688	509.63354	240.15967	965.96552	287.13077	327.67413	126.53138	820.34277	422.71426	118.62805	807.56879	355.45282	19.90757	647.12714	408.42459	121.03322	681.62817	408.22357	506.50037	576.53241	467.61639	807.63361	466.33850	369.97177	896.20795	523.77271	315.20181	955.09650	286.04358	
2210	18.408	266.63123	49.34616	222.25302	161.85454	49.06667	195.14510	229.58911	80.07056	21.86759	175.06561	140.21114	127.60963	157.27419	464.60745	315.13989	89.34805	834.49261	407.99091	174.75334	879.75214	510.38449	241.22505	965.32050	288.03439	326.65637	120.04447	813.71179	422.04053	112.20535	801.35242	355.10727	19.78089	637.57721	408.24875	117.57977	674.86218	408.50284	505.85666	576.99286	468.63022	807.35358	467.88809	370.32516	895.70990	525.04407	316.30811	954.58844	287.43802	
2211	18.417	266.03821	49.00584	212.75941	161.72176	49.25154	186.23122	228.71141	85.46822	13.91812	174.92326	142.84042	121.02419	157.75510	464.11270	314.73438	90.07559	833.86090	408.34061	175.14954	879.02924	511.23703	242.55865	964.72998	289.50015	326.14832	114.42005	806.98016	421.19336	106.91298	794.74951	354.42764	20.17984	628.14838	407.94159	114.38795	667.83978	408.55948	504.84210	577.26709	469.60754	807.17822	469.84564	370.65189	895.28906	527.03033	317.52939	954.16681	288.86285	
2212	18.425	266.91275	48.87954	204.48837	161.69429	49.62733	177.59637	228.25574	90.70110	6.85334	174.98656	145.63525	114.78272	158.11398	463.43973	314.68198	91.02831	833.19415	409.26804	175.87236	878.38788	512.43372	244.16228	964.23962	290.92291	325.33121	109.18448	800.84930	420.39389	102.05942	788.30414	355.07123	20.67092	619.40228	407.73914	112.22070	662.31421	408.80817	503.57629	576.86908	470.20093	806.87048	471.96161	371.26752	894.81213	528.84283	319.06070	953.80151	290.65594	
2213	18.433	266.16599	48.24412	195.11620	161.74857	49.78712	169.14857	228.71625	97.09080	-0.50373	174.69620	148.70018	109.08326	158.35976	462.87894	315.18463	92.31749	832.67499	409.83267	176.52721	877.91901	513.82959	245.59608	963.88098	292.44159	324.49582	103.08195	795.07239	419.37726	96.61931	782.43256	354.84641	21.58116	610.69556	407.35709	110.27593	657.04938	409.06619	502.25754	575.96429	471.07971	806.58313	474.07852	371.75610	894.51917	530.90991	320.44379	953.74579	292.39606	
2214	18.442	266.08035	48.37848	186.57341	161.71039	50.29453	160.67172	228.84348	103.75356	-6.92909	174.19856	152.06226	103.71043	158.67630	462.41110	316.27029	93.51530	832.24005	410.97729	177.06470	877.53510	515.15930	246.93733	963.65277	294.13525	323.19009	96.32275	789.24902	418.32715	90.67734	777.23584	354.76913	22.47012	601.78918	407.20413	108.54768	652.09680	409.62500	501.27298	574.44574	472.51718	806.59174	476.16370	372.70572	894.19116	532.84515	321.92734	953.82074	294.26868	
2215	18.450	265.83783	48.00582	177.89096	161.60429	50.91030	152.28705	227.97691	110.78339	-12.55413	173.67470	155.86018	98.83808	159.06647	461.90289	317.95230	94.67502	832.03516	412.35178	177.89746	877.41077	516.86713	248.32936	963.61523	295.94540	321.51392	90.08877	782.72156	416.82358	84.92802	770.96777	354.87656	23.44053	592.65942	406.70282	106.97385	646.22711	410.50693	500.48929	572.30249	473.44574	806.89996	478.73251	373.40417	894.42224	534.90045	323.98621	954.46814	296.00482	
2216	18.458	266.45859	47.96098	169.55992	161.60956	51.30064	144.17570	229.80811	119.06951	-17.82325	173.50327	159.73286	94.62552	159.03737	461.58017	320.30679	95.57378	832.03955	413.78738	178.94228	877.41846	518.71899	249.91165	963.64825	297.90158	319.86850	84.60087	775.42780	414.81607	79.94823	764.43365	355.29251	24.32516	583.88623	406.39914	105.51634	640.19977	411.15491	500.23615	570.49200	474.34415	807.69232	481.27722	374.69897	894.61951	537.01593	324.91119	954.79327	297.80234	
2217	18.467	265.97177	47.92198	160.95790	161.77980	52.14649	136.37344	228.97192	127.30038	-21.85894	173.10118	164.05481	91.22114	158.81235	461.06726	323.42529	96.78312	832.14166	415.52487	179.91647	877.68713	520.55884	251.03943	963.75629	299.46072	318.44742	79.25311	768.08270	413.56702	75.32232	757.72809	355.31979	25.07081	574.64990	406.65244	104.30753	634.23138	411.71771	500.39511	569.35754	475.61472	808.74634	483.65948	375.24307	895.21686	538.70709	326.65939	955.26715	299.99744	
